<svg width="258" height="58" viewBox="0 0 258 58" fill="none" xmlns="http://www.w3.org/2000/svg">
<g opacity="0.9">
<path d="M38.5 51.6L37.3 50.6C33.3 46.8 30.5 44.4 30.5 41.4C30.5 39 32.5 37 34.9 37C36.3 37 37.7 37.6 38.5 38.6C39.3 37.6 40.7 37 42.1 37C44.5 37 46.5 38.8 46.5 41.4C46.5 44.4 43.7 46.8 39.7 50.6L38.5 51.6Z" fill="#50B2C0"/>
<path d="M36.5 9C38.7 9 40.5 10.8 40.5 13V31.16L38.5 31L36.5 31.16V13H26.5V29L21.5 24.5L16.5 29V13H12.5V45H26.66C26.9 46.44 27.4 47.78 28.1 49H12.5C10.3 49 8.5 47.2 8.5 45V13C8.5 10.8 10.3 9 12.5 9H36.5Z" fill="#8381D9"/>
<path d="M63.6333 41V15.62H74.6493C77.4333 15.62 79.5813 16.316 81.0933 17.708C82.6053 19.1 83.3613 21.044 83.3613 23.54C83.3613 26.036 82.6053 27.992 81.0933 29.408C79.5813 30.8 77.4333 31.496 74.6493 31.496H68.2413V41H63.6333ZM68.2413 27.86H73.9293C77.2413 27.86 78.8973 26.42 78.8973 23.54C78.8973 20.684 77.2413 19.256 73.9293 19.256H68.2413V27.86ZM91.638 41.36C90.366 41.36 89.226 41.12 88.218 40.64C87.234 40.136 86.454 39.464 85.878 38.624C85.326 37.784 85.05 36.836 85.05 35.78C85.05 34.484 85.386 33.464 86.058 32.72C86.73 31.952 87.822 31.4 89.334 31.064C90.846 30.728 92.874 30.56 95.418 30.56H96.678V29.804C96.678 28.604 96.414 27.74 95.886 27.212C95.358 26.684 94.47 26.42 93.222 26.42C92.238 26.42 91.23 26.576 90.198 26.888C89.166 27.176 88.122 27.632 87.066 28.256L85.77 25.196C86.394 24.764 87.126 24.392 87.966 24.08C88.83 23.744 89.73 23.492 90.666 23.324C91.626 23.132 92.526 23.036 93.366 23.036C95.934 23.036 97.842 23.636 99.09 24.836C100.338 26.012 100.962 27.848 100.962 30.344V41H96.75V38.192C96.342 39.176 95.694 39.956 94.806 40.532C93.918 41.084 92.862 41.36 91.638 41.36ZM92.574 38.264C93.75 38.264 94.722 37.856 95.49 37.04C96.282 36.224 96.678 35.192 96.678 33.944V33.152H95.454C93.198 33.152 91.626 33.332 90.738 33.692C89.874 34.028 89.442 34.652 89.442 35.564C89.442 36.356 89.718 37.004 90.27 37.508C90.822 38.012 91.59 38.264 92.574 38.264ZM113.737 47.84C112.105 47.84 110.569 47.648 109.129 47.264C107.713 46.904 106.465 46.34 105.385 45.572L106.681 42.44C107.689 43.112 108.769 43.604 109.921 43.916C111.073 44.252 112.225 44.42 113.377 44.42C116.593 44.42 118.201 42.872 118.201 39.776V37.364C117.697 38.348 116.917 39.128 115.861 39.704C114.829 40.28 113.677 40.568 112.405 40.568C110.821 40.568 109.441 40.208 108.265 39.488C107.089 38.744 106.177 37.712 105.529 36.392C104.881 35.072 104.557 33.536 104.557 31.784C104.557 30.032 104.881 28.508 105.529 27.212C106.177 25.892 107.089 24.872 108.265 24.152C109.441 23.408 110.821 23.036 112.405 23.036C113.725 23.036 114.901 23.336 115.933 23.936C116.965 24.512 117.721 25.292 118.201 26.276V23.396H122.593V39.236C122.593 42.092 121.837 44.24 120.325 45.68C118.813 47.12 116.617 47.84 113.737 47.84ZM113.629 37.148C115.021 37.148 116.125 36.668 116.941 35.708C117.757 34.748 118.165 33.44 118.165 31.784C118.165 30.128 117.757 28.832 116.941 27.896C116.125 26.936 115.021 26.456 113.629 26.456C112.237 26.456 111.133 26.936 110.317 27.896C109.501 28.832 109.093 30.128 109.093 31.784C109.093 33.44 109.501 34.748 110.317 35.708C111.133 36.668 112.237 37.148 113.629 37.148ZM135.932 41.36C133.94 41.36 132.224 40.988 130.784 40.244C129.344 39.5 128.228 38.444 127.436 37.076C126.668 35.708 126.284 34.088 126.284 32.216C126.284 30.392 126.656 28.796 127.4 27.428C128.168 26.06 129.212 24.992 130.532 24.224C131.876 23.432 133.4 23.036 135.104 23.036C137.6 23.036 139.568 23.828 141.008 25.412C142.472 26.996 143.204 29.156 143.204 31.892V33.224H130.604C130.94 36.368 132.74 37.94 136.004 37.94C136.988 37.94 137.972 37.796 138.956 37.508C139.94 37.196 140.84 36.716 141.656 36.068L142.916 39.092C142.076 39.788 141.02 40.34 139.748 40.748C138.476 41.156 137.204 41.36 135.932 41.36ZM135.284 26.096C133.964 26.096 132.896 26.504 132.08 27.32C131.264 28.136 130.772 29.24 130.604 30.632H139.46C139.364 29.168 138.956 28.052 138.236 27.284C137.54 26.492 136.556 26.096 135.284 26.096ZM156.903 41V15.62H167.919C170.703 15.62 172.851 16.316 174.363 17.708C175.875 19.1 176.631 21.044 176.631 23.54C176.631 26.036 175.875 27.992 174.363 29.408C172.851 30.8 170.703 31.496 167.919 31.496H161.511V41H156.903ZM161.511 27.86H167.199C170.511 27.86 172.167 26.42 172.167 23.54C172.167 20.684 170.511 19.256 167.199 19.256H161.511V27.86ZM179.604 41V23.396H183.996V26.492C184.86 24.404 186.708 23.252 189.54 23.036L190.908 22.928L191.196 26.744L188.604 26.996C185.652 27.284 184.176 28.796 184.176 31.532V41H179.604ZM199.322 41.36C198.05 41.36 196.91 41.12 195.902 40.64C194.918 40.136 194.138 39.464 193.562 38.624C193.01 37.784 192.734 36.836 192.734 35.78C192.734 34.484 193.07 33.464 193.742 32.72C194.414 31.952 195.506 31.4 197.018 31.064C198.53 30.728 200.558 30.56 203.102 30.56H204.362V29.804C204.362 28.604 204.098 27.74 203.57 27.212C203.042 26.684 202.154 26.42 200.906 26.42C199.922 26.42 198.914 26.576 197.882 26.888C196.85 27.176 195.806 27.632 194.75 28.256L193.454 25.196C194.078 24.764 194.81 24.392 195.65 24.08C196.514 23.744 197.414 23.492 198.35 23.324C199.31 23.132 200.21 23.036 201.05 23.036C203.618 23.036 205.526 23.636 206.774 24.836C208.022 26.012 208.646 27.848 208.646 30.344V41H204.434V38.192C204.026 39.176 203.378 39.956 202.49 40.532C201.602 41.084 200.546 41.36 199.322 41.36ZM200.258 38.264C201.434 38.264 202.406 37.856 203.174 37.04C203.966 36.224 204.362 35.192 204.362 33.944V33.152H203.138C200.882 33.152 199.31 33.332 198.422 33.692C197.558 34.028 197.126 34.652 197.126 35.564C197.126 36.356 197.402 37.004 197.954 37.508C198.506 38.012 199.274 38.264 200.258 38.264ZM212.925 19.616V15.224H217.965V19.616H212.925ZM213.213 41V23.396H217.713V41H213.213ZM228.833 41.36C227.345 41.36 225.953 41.18 224.657 40.82C223.361 40.46 222.281 39.944 221.417 39.272L222.569 36.32C223.457 36.92 224.453 37.388 225.557 37.724C226.661 38.036 227.765 38.192 228.869 38.192C230.021 38.192 230.873 38 231.425 37.616C232.001 37.208 232.289 36.68 232.289 36.032C232.289 35.024 231.545 34.376 230.057 34.088L226.457 33.404C223.409 32.828 221.885 31.244 221.885 28.652C221.885 27.5 222.197 26.504 222.821 25.664C223.469 24.824 224.357 24.176 225.485 23.72C226.613 23.264 227.909 23.036 229.373 23.036C230.621 23.036 231.821 23.216 232.973 23.576C234.125 23.912 235.109 24.428 235.925 25.124L234.701 28.076C234.005 27.5 233.165 27.044 232.181 26.708C231.221 26.372 230.297 26.204 229.409 26.204C228.233 26.204 227.357 26.408 226.781 26.816C226.229 27.224 225.953 27.764 225.953 28.436C225.953 29.492 226.637 30.14 228.005 30.38L231.605 31.064C233.165 31.352 234.341 31.88 235.133 32.648C235.949 33.416 236.357 34.448 236.357 35.744C236.357 37.496 235.673 38.876 234.305 39.884C232.937 40.868 231.113 41.36 228.833 41.36ZM248.643 41.36C246.651 41.36 244.935 40.988 243.495 40.244C242.055 39.5 240.939 38.444 240.147 37.076C239.379 35.708 238.995 34.088 238.995 32.216C238.995 30.392 239.367 28.796 240.111 27.428C240.879 26.06 241.923 24.992 243.243 24.224C244.587 23.432 246.111 23.036 247.815 23.036C250.311 23.036 252.279 23.828 253.719 25.412C255.183 26.996 255.915 29.156 255.915 31.892V33.224H243.315C243.651 36.368 245.451 37.94 248.715 37.94C249.699 37.94 250.683 37.796 251.667 37.508C252.651 37.196 253.551 36.716 254.367 36.068L255.627 39.092C254.787 39.788 253.731 40.34 252.459 40.748C251.187 41.156 249.915 41.36 248.643 41.36ZM247.995 26.096C246.675 26.096 245.607 26.504 244.791 27.32C243.975 28.136 243.483 29.24 243.315 30.632H252.171C252.075 29.168 251.667 28.052 250.947 27.284C250.251 26.492 249.267 26.096 247.995 26.096Z" fill="url(#paint0_linear_517_8)"/>
</g>
<defs>
<linearGradient id="paint0_linear_517_8" x1="60.5" y1="29.5686" x2="257.5" y2="29.5686" gradientUnits="userSpaceOnUse">
<stop stop-color="#7FD1CC"/>
<stop offset="1" stop-color="#9694F5"/>
</linearGradient>
</defs>
</svg>
